<?xml version="1.0" encoding="utf-8"?>
<!-- Generator: Adobe Illustrator 16.0.4, SVG Export Plug-In . SVG Version: 6.00 Build 0)  -->
<!DOCTYPE svg PUBLIC "-//W3C//DTD SVG 1.1//EN" "http://www.w3.org/Graphics/SVG/1.1/DTD/svg11.dtd">
<svg version="1.1" id="Layer_1" xmlns="http://www.w3.org/2000/svg" xmlns:xlink="http://www.w3.org/1999/xlink" x="0px" y="0px"
	 width="250px" height="300px" viewBox="0 0 250 300" enable-background="new 0 0 250 300" xml:space="preserve">
<g>
	<path fill="#FBB03B" d="M13.113,260.238h3.744v7.056l6.6-7.056h4.896l-7.56,7.896l8.208,9.097h-5.232l-6.911-8.062v8.062h-3.744
		L13.113,260.238L13.113,260.238z"/>
	<path fill="#FBB03B" d="M41.001,260.238h11.544v3.456h-7.8v3.168h7.367v3.456h-7.367v3.455h8.231v3.457H41.001V260.238z"/>
	<path fill="#FBB03B" d="M70.712,269.982l-6.384-9.744h4.656l3.6,6.359l3.816-6.359h4.44l-6.385,9.744v7.248h-3.744L70.712,269.982
		L70.712,269.982z"/>
	<path fill="#FBB03B" d="M92.792,260.238h3.744v7.056l6.6-7.056h4.896l-7.561,7.896l8.208,9.097h-5.231l-6.912-8.062v8.062h-3.744
		V260.238z"/>
	<path fill="#FBB03B" d="M120.68,260.238h11.544v3.456h-7.801v3.168h7.367v3.456h-7.367v3.455h8.232v3.457H120.68V260.238z"/>
	<path fill="#FBB03B" d="M146.359,260.238h11.543v3.456h-7.799v3.168h7.367v3.456h-7.367v3.455h8.231v3.457h-11.978v-16.992H146.359
		z"/>
	<path fill="#FBB03B" d="M171.895,260.238h6.312c0.881,0,1.713,0.081,2.496,0.24c0.783,0.16,1.469,0.437,2.053,0.828
		c0.584,0.391,1.047,0.92,1.393,1.584c0.345,0.664,0.517,1.5,0.517,2.508c0,0.992-0.16,1.824-0.479,2.496
		c-0.32,0.672-0.761,1.207-1.32,1.607c-0.561,0.4-1.225,0.684-1.992,0.852s-1.6,0.252-2.496,0.252h-2.736v6.625h-3.744v-16.992
		H171.895z M175.639,267.438h2.496c0.336,0,0.66-0.03,0.973-0.096c0.313-0.064,0.593-0.172,0.841-0.324
		c0.247-0.151,0.446-0.358,0.6-0.623c0.153-0.266,0.229-0.597,0.229-0.996c0-0.434-0.1-0.78-0.301-1.045
		c-0.199-0.264-0.455-0.469-0.769-0.61c-0.312-0.146-0.66-0.236-1.043-0.277c-0.385-0.038-0.752-0.06-1.104-0.06h-1.92v4.031
		H175.639z"/>
	<path fill="#FBB03B" d="M197.719,260.238h11.545v3.456h-7.801v3.168h7.369v3.456h-7.369v3.455h8.232v3.457h-11.978L197.719,260.238
		L197.719,260.238z"/>
	<path fill="#FBB03B" d="M223.254,260.238h6.576c0.865,0,1.684,0.084,2.461,0.252c0.775,0.169,1.455,0.447,2.039,0.841
		c0.584,0.392,1.049,0.92,1.393,1.584s0.517,1.492,0.517,2.483c0,1.199-0.312,2.22-0.937,3.06c-0.623,0.84-1.535,1.373-2.736,1.597
		l4.32,7.176h-4.488l-3.551-6.791h-1.85v6.791h-3.744V260.238L223.254,260.238z M226.998,267.27h2.209
		c0.336,0,0.691-0.012,1.068-0.035c0.375-0.024,0.715-0.096,1.02-0.217c0.303-0.119,0.557-0.309,0.756-0.563s0.301-0.615,0.301-1.08
		c0-0.433-0.088-0.774-0.266-1.03c-0.176-0.257-0.398-0.453-0.672-0.589c-0.271-0.137-0.584-0.229-0.936-0.276
		c-0.353-0.047-0.695-0.071-1.031-0.071h-2.449V267.27L226.998,267.27z"/>
</g>
<path fill="#FFFFFF" stroke="#FFFFFF" stroke-width="0.7" stroke-miterlimit="10" d="M125.85,236.811"/>
<linearGradient id="SVGID_1_" gradientUnits="userSpaceOnUse" x1="123.9995" y1="49.2656" x2="123.9995" y2="212.6234">
	<stop  offset="0" style="stop-color:#FFFF00"/>
	<stop  offset="0.0602" style="stop-color:#FFF204"/>
	<stop  offset="0.2389" style="stop-color:#FFD00D"/>
	<stop  offset="0.4213" style="stop-color:#FFB515"/>
	<stop  offset="0.6068" style="stop-color:#FFA21A"/>
	<stop  offset="0.7972" style="stop-color:#FF971D"/>
	<stop  offset="1" style="stop-color:#FF931E"/>
</linearGradient>
<path fill="url(#SVGID_1_)" d="M130.5,163.279V34.5h-12v128.898l-54-53.199v15.839l39.112,38.186l-29.335,29.797
	c1.947,3.258,3.904,6.312,6.416,9.131l37.807-38.101V222.5h12v-57.33l39.062,38.237c2.537-2.797,5.224-5.83,7.183-9.068
	l-30.833-30.114l37.588-38.306V110.08L130.5,163.279z"/>
<linearGradient id="SVGID_2_" gradientUnits="userSpaceOnUse" x1="124.5005" y1="248.2256" x2="124.5005" y2="-47.9868">
	<stop  offset="0" style="stop-color:#381E54"/>
	<stop  offset="0.2008" style="stop-color:#351C4F"/>
	<stop  offset="0.4305" style="stop-color:#2C1741"/>
	<stop  offset="0.6744" style="stop-color:#1C0F2B"/>
	<stop  offset="0.9266" style="stop-color:#07040B"/>
	<stop  offset="1" style="stop-color:#000000"/>
</linearGradient>
<path fill="url(#SVGID_2_)" d="M124.607,235.73c-39.815,0-72.107-32.344-72.107-72.1V23.5h144v140.105
	C196.5,203.387,164.305,235.73,124.607,235.73z M56.5,27.5v136.105c0,37.467,30.607,67.926,68.107,67.926
	c37.381,0,67.893-30.459,67.893-67.9V27.5H56.5z"/>
<ellipse fill="#FFFFFF" cx="86.3" cy="166.516" rx="5.506" ry="2.752"/>
<ellipse fill="#FFFFFF" cx="165.4" cy="166.516" rx="5.505" ry="2.752"/>
<linearGradient id="SVGID_3_" gradientUnits="userSpaceOnUse" x1="81.6602" y1="25.5" x2="169.2361" y2="25.5">
	<stop  offset="0" style="stop-color:#000000"/>
	<stop  offset="0.2782" style="stop-color:#381E54"/>
	<stop  offset="0.6621" style="stop-color:#381E54"/>
	<stop  offset="0.7262" style="stop-color:#321B4C"/>
	<stop  offset="0.8275" style="stop-color:#231335"/>
	<stop  offset="0.9529" style="stop-color:#0B0610"/>
	<stop  offset="1" style="stop-color:#000000"/>
</linearGradient>
<rect x="53.599" y="23.5" fill="url(#SVGID_3_)" width="141.803" height="4"/>
</svg>
