<?xml version="1.0" encoding="iso-8859-1"?>
<!-- Generator: Adobe Illustrator 16.0.3, SVG Export Plug-In . SVG Version: 6.00 Build 0)  -->
<!DOCTYPE svg PUBLIC "-//W3C//DTD SVG 1.1//EN" "http://www.w3.org/Graphics/SVG/1.1/DTD/svg11.dtd">
<svg version="1.1" id="Layer_1" xmlns="http://www.w3.org/2000/svg" xmlns:xlink="http://www.w3.org/1999/xlink" x="0px" y="0px"
	 width="250px" height="300px" viewBox="0 0 250 300" style="enable-background:new 0 0 250 300;" xml:space="preserve">
<g>
	<path style="fill:#FBB03B;" d="M13.113,265.908h3.744v7.056l6.6-7.056h4.896l-7.56,7.896l8.208,9.097h-5.232l-6.911-8.063v8.063
		h-3.744V265.908z"/>
	<path style="fill:#FBB03B;" d="M41.001,265.908h11.544v3.456h-7.8v3.168h7.367v3.456h-7.367v3.456h8.231v3.456H41.001V265.908z"/>
	<path style="fill:#FBB03B;" d="M70.712,275.652l-6.384-9.744h4.656l3.6,6.36l3.816-6.36h4.44l-6.385,9.744v7.248h-3.744V275.652z"
		/>
	<path style="fill:#FBB03B;" d="M92.792,265.908h3.744v7.056l6.6-7.056h4.896l-7.561,7.896l8.208,9.097h-5.231l-6.912-8.063v8.063
		h-3.744V265.908z"/>
	<path style="fill:#FBB03B;" d="M120.68,265.908h11.544v3.456h-7.8v3.168h7.367v3.456h-7.367v3.456h8.232v3.456H120.68V265.908z"/>
	<path style="fill:#FBB03B;" d="M146.359,265.908h11.544v3.456h-7.8v3.168h7.367v3.456h-7.367v3.456h8.232v3.456h-11.977V265.908z"
		/>
	<path style="fill:#FBB03B;" d="M171.895,265.908h6.312c0.881,0,1.713,0.081,2.496,0.24c0.783,0.16,1.469,0.437,2.053,0.828
		s1.047,0.92,1.393,1.584c0.344,0.664,0.516,1.5,0.516,2.508c0,0.992-0.16,1.824-0.48,2.496s-0.76,1.208-1.32,1.608
		s-1.225,0.684-1.992,0.852s-1.6,0.252-2.496,0.252h-2.736v6.624h-3.744V265.908z M175.639,273.108h2.496
		c0.336,0,0.66-0.031,0.973-0.096s0.592-0.172,0.84-0.324s0.447-0.359,0.6-0.624s0.229-0.596,0.229-0.996
		c0-0.433-0.1-0.78-0.301-1.044c-0.199-0.264-0.455-0.469-0.768-0.611c-0.312-0.145-0.66-0.236-1.043-0.277
		c-0.385-0.039-0.752-0.06-1.105-0.06h-1.92V273.108z"/>
	<path style="fill:#FBB03B;" d="M197.719,265.908h11.545v3.456h-7.801v3.168h7.369v3.456h-7.369v3.456h8.232v3.456h-11.977V265.908z
		"/>
	<path style="fill:#FBB03B;" d="M223.254,265.908h6.576c0.865,0,1.684,0.084,2.461,0.252c0.775,0.169,1.455,0.448,2.039,0.841
		c0.584,0.392,1.049,0.92,1.393,1.584s0.516,1.492,0.516,2.483c0,1.2-0.311,2.22-0.936,3.06c-0.623,0.84-1.535,1.373-2.736,1.597
		l4.32,7.176h-4.488l-3.551-6.792h-1.85v6.792h-3.744V265.908z M226.998,272.94h2.209c0.336,0,0.691-0.012,1.068-0.036
		c0.375-0.024,0.715-0.096,1.02-0.216c0.303-0.12,0.557-0.309,0.756-0.564s0.301-0.615,0.301-1.08c0-0.432-0.088-0.775-0.266-1.031
		c-0.176-0.256-0.398-0.452-0.672-0.588c-0.271-0.137-0.584-0.229-0.936-0.276s-0.695-0.072-1.031-0.072h-2.449V272.94z"/>
</g>
<g>
	<path d="M125.337,212.591"/>
	<linearGradient id="SVGID_1_" gradientUnits="userSpaceOnUse" x1="124.9995" y1="78.8984" x2="124.9995" y2="216.3541">
		<stop  offset="0" style="stop-color:#FFFF00"/>
		<stop  offset="0.0602" style="stop-color:#FFF204"/>
		<stop  offset="0.2389" style="stop-color:#FFD00D"/>
		<stop  offset="0.4213" style="stop-color:#FFB515"/>
		<stop  offset="0.6068" style="stop-color:#FFA21A"/>
		<stop  offset="0.7972" style="stop-color:#FF971D"/>
		<stop  offset="1" style="stop-color:#FF931E"/>
	</linearGradient>
	<rect x="121.619" y="34.336" style="fill:url(#SVGID_1_);" width="6.761" height="181.92"/>
	<linearGradient id="SVGID_2_" gradientUnits="userSpaceOnUse" x1="92.3765" y1="78.895" x2="92.3765" y2="216.3551">
		<stop  offset="0" style="stop-color:#FFFF00"/>
		<stop  offset="0.0602" style="stop-color:#FFF204"/>
		<stop  offset="0.2389" style="stop-color:#FFD00D"/>
		<stop  offset="0.4213" style="stop-color:#FFB515"/>
		<stop  offset="0.6068" style="stop-color:#FFA21A"/>
		<stop  offset="0.7972" style="stop-color:#FF971D"/>
		<stop  offset="1" style="stop-color:#FF931E"/>
	</linearGradient>
	<path style="fill:url(#SVGID_2_);" d="M80.955,196.657l36.283-36.286l-49.722-49.723v9.569l40.159,40.153l-30.792,30.793
		C78.133,193.075,79.493,194.913,80.955,196.657z"/>
	<linearGradient id="SVGID_3_" gradientUnits="userSpaceOnUse" x1="157.9609" y1="78.895" x2="157.9609" y2="216.3558">
		<stop  offset="0" style="stop-color:#FFFF00"/>
		<stop  offset="0.0602" style="stop-color:#FFF204"/>
		<stop  offset="0.2389" style="stop-color:#FFD00D"/>
		<stop  offset="0.4213" style="stop-color:#FFB515"/>
		<stop  offset="0.6068" style="stop-color:#FFA21A"/>
		<stop  offset="0.7972" style="stop-color:#FF971D"/>
		<stop  offset="1" style="stop-color:#FF931E"/>
	</linearGradient>
	<path style="fill:url(#SVGID_3_);" d="M133.439,160.372l36.106,36.11c1.466-1.75,2.825-3.584,4.066-5.5l-30.609-30.61l39.479-39.48
		v-9.565L133.439,160.372z"/>
	<ellipse style="fill:#FFFFFF;" cx="87.127" cy="162.586" rx="5.319" ry="2.659"/>
	<path style="fill:#FFFFFF;" d="M168.867,162.586c0,1.47-2.38,2.659-5.317,2.659c-2.939,0-5.321-1.189-5.321-2.659
		c0-1.471,2.382-2.663,5.321-2.663C166.487,159.923,168.867,161.116,168.867,162.586z"/>
	<path style="fill:#FFFFFF;" d="M125.104,230.81c-39.212,0-71.114-31.859-71.114-71.009V20.81h142.02v138.963
		C196.01,198.95,164.201,230.81,125.104,230.81z M60.754,27.574v132.199c0,35.451,28.867,64.271,64.35,64.271
		c35.367,0,64.144-28.82,64.144-64.244V27.574H60.754z"/>
</g>
</svg>
